<mxfile host="app.diagrams.net" modified="2023-05-04T18:37:54.547Z" agent="Mozilla/5.0 (Macintosh; Intel Mac OS X 10_15_7) AppleWebKit/605.1.15 (KHTML, like Gecko) Version/16.4 Safari/605.1.15" etag="q3nWzb2Rs2pTg-3YWutj" version="21.2.8" type="device">
  <diagram name="Page-1" id="TZWOHMhg20Dcy95KobjQ">
    <mxGraphModel dx="709" dy="705" grid="1" gridSize="10" guides="1" tooltips="1" connect="1" arrows="1" fold="1" page="1" pageScale="1" pageWidth="1169" pageHeight="827" math="0" shadow="0">
      <root>
        <mxCell id="0" />
        <mxCell id="1" parent="0" />
        <mxCell id="nS4QKkaRTPCVfABqBd9--24" value="System" style="shape=umlLifeline;perimeter=lifelinePerimeter;whiteSpace=wrap;html=1;container=0;dropTarget=0;collapsible=0;recursiveResize=0;outlineConnect=0;portConstraint=eastwest;newEdgeStyle={&quot;edgeStyle&quot;:&quot;elbowEdgeStyle&quot;,&quot;elbow&quot;:&quot;vertical&quot;,&quot;curved&quot;:0,&quot;rounded&quot;:0};" vertex="1" parent="1">
          <mxGeometry x="350" y="55" width="100" height="305" as="geometry" />
        </mxCell>
        <mxCell id="nS4QKkaRTPCVfABqBd9--25" value="" style="html=1;points=[];perimeter=orthogonalPerimeter;outlineConnect=0;targetShapes=umlLifeline;portConstraint=eastwest;newEdgeStyle={&quot;edgeStyle&quot;:&quot;elbowEdgeStyle&quot;,&quot;elbow&quot;:&quot;vertical&quot;,&quot;curved&quot;:0,&quot;rounded&quot;:0};" vertex="1" parent="nS4QKkaRTPCVfABqBd9--24">
          <mxGeometry x="45" y="80" width="10" height="210" as="geometry" />
        </mxCell>
        <mxCell id="nS4QKkaRTPCVfABqBd9--26" value="&lt;font color=&quot;#009900&quot;&gt;&lt;b&gt;1:&lt;/b&gt;&lt;/font&gt;&lt;font color=&quot;#99ff99&quot;&gt; &lt;/font&gt;produceStatsMoment(Date day, Coordinates coord, double area)" style="html=1;verticalAlign=bottom;endArrow=block;edgeStyle=elbowEdgeStyle;elbow=vertical;curved=0;rounded=0;" edge="1" parent="1" target="nS4QKkaRTPCVfABqBd9--25">
          <mxGeometry x="-0.0015" relative="1" as="geometry">
            <mxPoint x="54.5" y="140" as="sourcePoint" />
            <Array as="points">
              <mxPoint x="165" y="140" />
            </Array>
            <mxPoint as="offset" />
          </mxGeometry>
        </mxCell>
        <mxCell id="nS4QKkaRTPCVfABqBd9--27" value="&lt;b style=&quot;border-color: var(--border-color); caret-color: rgb(0, 153, 0); color: rgb(0, 153, 0);&quot;&gt;7:&amp;nbsp;&lt;/b&gt;int: ATMOIdx" style="html=1;verticalAlign=bottom;endArrow=open;dashed=1;endSize=8;edgeStyle=elbowEdgeStyle;elbow=vertical;curved=0;rounded=0;" edge="1" parent="1" source="nS4QKkaRTPCVfABqBd9--25">
          <mxGeometry x="0.003" relative="1" as="geometry">
            <mxPoint x="60" y="340" as="targetPoint" />
            <Array as="points">
              <mxPoint x="280" y="340" />
              <mxPoint x="260" y="350" />
              <mxPoint x="365" y="400" />
              <mxPoint x="275" y="360" />
              <mxPoint x="315" y="340" />
              <mxPoint x="175" y="300" />
            </Array>
            <mxPoint as="offset" />
          </mxGeometry>
        </mxCell>
        <mxCell id="nS4QKkaRTPCVfABqBd9--28" value="DataBase" style="shape=umlLifeline;perimeter=lifelinePerimeter;whiteSpace=wrap;html=1;container=0;dropTarget=0;collapsible=0;recursiveResize=0;outlineConnect=0;portConstraint=eastwest;newEdgeStyle={&quot;edgeStyle&quot;:&quot;elbowEdgeStyle&quot;,&quot;elbow&quot;:&quot;vertical&quot;,&quot;curved&quot;:0,&quot;rounded&quot;:0};" vertex="1" parent="1">
          <mxGeometry x="690" y="60" width="100" height="300" as="geometry" />
        </mxCell>
        <mxCell id="nS4QKkaRTPCVfABqBd9--29" value="" style="html=1;points=[];perimeter=orthogonalPerimeter;outlineConnect=0;targetShapes=umlLifeline;portConstraint=eastwest;newEdgeStyle={&quot;edgeStyle&quot;:&quot;elbowEdgeStyle&quot;,&quot;elbow&quot;:&quot;vertical&quot;,&quot;curved&quot;:0,&quot;rounded&quot;:0};" vertex="1" parent="nS4QKkaRTPCVfABqBd9--28">
          <mxGeometry x="45" y="90" width="10" height="40" as="geometry" />
        </mxCell>
        <mxCell id="nS4QKkaRTPCVfABqBd9--30" value="" style="html=1;points=[];perimeter=orthogonalPerimeter;outlineConnect=0;targetShapes=umlLifeline;portConstraint=eastwest;newEdgeStyle={&quot;edgeStyle&quot;:&quot;elbowEdgeStyle&quot;,&quot;elbow&quot;:&quot;vertical&quot;,&quot;curved&quot;:0,&quot;rounded&quot;:0};" vertex="1" parent="nS4QKkaRTPCVfABqBd9--28">
          <mxGeometry x="45" y="160" width="10" height="40" as="geometry" />
        </mxCell>
        <mxCell id="nS4QKkaRTPCVfABqBd9--31" value="" style="endArrow=block;html=1;rounded=0;endFill=1;" edge="1" parent="1" source="nS4QKkaRTPCVfABqBd9--25" target="nS4QKkaRTPCVfABqBd9--29">
          <mxGeometry width="50" height="50" relative="1" as="geometry">
            <mxPoint x="455" y="160" as="sourcePoint" />
            <mxPoint x="645" y="160" as="targetPoint" />
            <Array as="points">
              <mxPoint x="685" y="150" />
            </Array>
          </mxGeometry>
        </mxCell>
        <mxCell id="nS4QKkaRTPCVfABqBd9--32" value="&lt;b style=&quot;border-color: var(--border-color); caret-color: rgb(0, 153, 0); color: rgb(0, 153, 0);&quot;&gt;2:&lt;/b&gt;&amp;nbsp;getSensorsAround(Coordinates coord, double area)" style="edgeLabel;html=1;align=center;verticalAlign=middle;resizable=0;points=[];" vertex="1" connectable="0" parent="nS4QKkaRTPCVfABqBd9--31">
          <mxGeometry x="-0.4123" y="2" relative="1" as="geometry">
            <mxPoint x="73" y="-8" as="offset" />
          </mxGeometry>
        </mxCell>
        <mxCell id="nS4QKkaRTPCVfABqBd9--33" value="" style="endArrow=open;html=1;rounded=0;endFill=0;dashed=1;" edge="1" parent="1" source="nS4QKkaRTPCVfABqBd9--29" target="nS4QKkaRTPCVfABqBd9--25">
          <mxGeometry width="50" height="50" relative="1" as="geometry">
            <mxPoint x="505" y="235" as="sourcePoint" />
            <mxPoint x="555" y="185" as="targetPoint" />
            <Array as="points">
              <mxPoint x="565" y="190" />
            </Array>
          </mxGeometry>
        </mxCell>
        <mxCell id="nS4QKkaRTPCVfABqBd9--34" value="&lt;b style=&quot;border-color: var(--border-color); caret-color: rgb(0, 153, 0); color: rgb(0, 153, 0);&quot;&gt;3:&amp;nbsp;&lt;/b&gt;listSensors: Vector&amp;lt;Sensor&amp;gt;:" style="edgeLabel;html=1;align=center;verticalAlign=middle;resizable=0;points=[];" vertex="1" connectable="0" parent="nS4QKkaRTPCVfABqBd9--33">
          <mxGeometry x="0.2794" y="1" relative="1" as="geometry">
            <mxPoint x="37" y="-11" as="offset" />
          </mxGeometry>
        </mxCell>
        <mxCell id="nS4QKkaRTPCVfABqBd9--35" value="" style="endArrow=block;html=1;rounded=0;endFill=1;" edge="1" parent="1" source="nS4QKkaRTPCVfABqBd9--25" target="nS4QKkaRTPCVfABqBd9--30">
          <mxGeometry width="50" height="50" relative="1" as="geometry">
            <mxPoint x="440" y="219.9999999999999" as="sourcePoint" />
            <mxPoint x="710" y="219.9999999999999" as="targetPoint" />
            <Array as="points">
              <mxPoint x="660" y="220" />
            </Array>
          </mxGeometry>
        </mxCell>
        <mxCell id="nS4QKkaRTPCVfABqBd9--36" value="&lt;b style=&quot;border-color: var(--border-color); caret-color: rgb(0, 153, 0); color: rgb(0, 153, 0);&quot;&gt;4:&amp;nbsp;&lt;/b&gt;getMeasuresAtMoment(Vector&amp;lt;Sensor&amp;gt; listSensors, Date date)" style="edgeLabel;html=1;align=center;verticalAlign=middle;resizable=0;points=[];" vertex="1" connectable="0" parent="nS4QKkaRTPCVfABqBd9--35">
          <mxGeometry x="-0.4123" y="2" relative="1" as="geometry">
            <mxPoint x="66" y="-8" as="offset" />
          </mxGeometry>
        </mxCell>
        <mxCell id="nS4QKkaRTPCVfABqBd9--37" value="" style="endArrow=open;html=1;rounded=0;endFill=0;dashed=1;" edge="1" parent="1" source="nS4QKkaRTPCVfABqBd9--30" target="nS4QKkaRTPCVfABqBd9--25">
          <mxGeometry width="50" height="50" relative="1" as="geometry">
            <mxPoint x="710" y="260" as="sourcePoint" />
            <mxPoint x="440" y="260" as="targetPoint" />
            <Array as="points">
              <mxPoint x="565" y="260" />
            </Array>
          </mxGeometry>
        </mxCell>
        <mxCell id="nS4QKkaRTPCVfABqBd9--38" value="&lt;b style=&quot;border-color: var(--border-color); caret-color: rgb(0, 153, 0); color: rgb(0, 153, 0);&quot;&gt;5:&amp;nbsp;&lt;/b&gt;listMeasures: Vector&amp;lt;Measure&amp;gt;" style="edgeLabel;html=1;align=center;verticalAlign=middle;resizable=0;points=[];" vertex="1" connectable="0" parent="nS4QKkaRTPCVfABqBd9--37">
          <mxGeometry x="0.2794" y="1" relative="1" as="geometry">
            <mxPoint x="37" y="-11" as="offset" />
          </mxGeometry>
        </mxCell>
        <mxCell id="nS4QKkaRTPCVfABqBd9--39" value="" style="rounded=0;whiteSpace=wrap;html=1;" vertex="1" parent="1">
          <mxGeometry x="400" y="286" width="10" height="40" as="geometry" />
        </mxCell>
        <mxCell id="nS4QKkaRTPCVfABqBd9--40" value="" style="endArrow=block;html=1;rounded=0;exitX=0.967;exitY=0.083;exitDx=0;exitDy=0;entryX=1.111;entryY=0.858;entryDx=0;entryDy=0;entryPerimeter=0;exitPerimeter=0;endFill=1;" edge="1" parent="1" source="nS4QKkaRTPCVfABqBd9--39" target="nS4QKkaRTPCVfABqBd9--39">
          <mxGeometry width="50" height="50" relative="1" as="geometry">
            <mxPoint x="450" y="300" as="sourcePoint" />
            <mxPoint x="460" y="330" as="targetPoint" />
            <Array as="points">
              <mxPoint x="430" y="289" />
              <mxPoint x="430" y="320" />
            </Array>
          </mxGeometry>
        </mxCell>
        <mxCell id="nS4QKkaRTPCVfABqBd9--41" value="&lt;b style=&quot;border-color: var(--border-color); caret-color: rgb(0, 153, 0); color: rgb(0, 153, 0);&quot;&gt;6:&amp;nbsp;&lt;/b&gt;int: computeATMOIdx(Vector&amp;lt;Measure&amp;gt; listMeasures)" style="edgeLabel;html=1;align=center;verticalAlign=middle;resizable=0;points=[];" vertex="1" connectable="0" parent="nS4QKkaRTPCVfABqBd9--40">
          <mxGeometry x="0.0185" y="2" relative="1" as="geometry">
            <mxPoint x="138" y="2" as="offset" />
          </mxGeometry>
        </mxCell>
        <mxCell id="nS4QKkaRTPCVfABqBd9--42" value="user interface" style="shape=umlActor;verticalLabelPosition=bottom;verticalAlign=top;html=1;outlineConnect=0;" vertex="1" parent="1">
          <mxGeometry x="40" y="40" width="20" height="40" as="geometry" />
        </mxCell>
        <mxCell id="nS4QKkaRTPCVfABqBd9--43" value="" style="endArrow=none;dashed=1;html=1;rounded=0;" edge="1" parent="1">
          <mxGeometry width="50" height="50" relative="1" as="geometry">
            <mxPoint x="50" y="360" as="sourcePoint" />
            <mxPoint x="50" y="100" as="targetPoint" />
          </mxGeometry>
        </mxCell>
      </root>
    </mxGraphModel>
  </diagram>
</mxfile>
